<svg xmlns="http://www.w3.org/2000/svg" xmlns:xlink="http://www.w3.org/1999/xlink" contentStyleType="text/css" height="856px" preserveAspectRatio="none" style="width:978px;height:856px;background:#FFFFFF;" version="1.1" viewBox="0 0 978 856" width="978px" zoomAndPan="magnify"><title>app</title><defs/><g><text fill="#000000" font-family="sans-serif" font-size="14" font-weight="bold" lengthAdjust="spacing" textLength="29.4902" x="467.4724" y="22.9951">app</text><!--class activity--><g id="elem_activity"><rect codeLine="7" fill="#F1F1F1" height="205.2656" id="activity" rx="2.5" ry="2.5" style="stroke:#181818;stroke-width:0.5;" width="195.8457" x="212.03" y="444.4569"/><text fill="#000000" font-family="sans-serif" font-size="14" lengthAdjust="spacing" textLength="51.6045" x="284.1506" y="462.452">activity</text><line style="stroke:#181818;stroke-width:0.5;" x1="213.03" x2="406.8757" y1="470.7538" y2="470.7538"/><ellipse cx="223.03" cy="484.4022" fill="#000000" rx="3" ry="3" style="stroke:#000000;stroke-width:1.0;"/><text fill="#000000" font-family="sans-serif" font-size="14" lengthAdjust="spacing" textLength="72.0645" x="232.03" y="487.7489">id: integer</text><line style="stroke:#181818;stroke-width:1.0;" x1="213.03" x2="406.8757" y1="495.0506" y2="495.0506"/><text fill="#000000" font-family="sans-serif" font-size="14" lengthAdjust="spacing" textLength="140.9365" x="232.03" y="512.0457">category_id: integer</text><text fill="#000000" font-family="sans-serif" font-size="14" lengthAdjust="spacing" textLength="169.8457" x="232.03" y="528.3426">target_group_id: integer</text><text fill="#000000" font-family="sans-serif" font-size="14" lengthAdjust="spacing" textLength="123.9492" x="232.03" y="544.6395">school_id: integer</text><text fill="#000000" font-family="sans-serif" font-size="14" lengthAdjust="spacing" textLength="129.5205" x="232.03" y="560.9364">creator_id: integer</text><ellipse cx="223.03" cy="573.8866" fill="#000000" rx="3" ry="3" style="stroke:#000000;stroke-width:1.0;"/><text fill="#000000" font-family="sans-serif" font-size="14" lengthAdjust="spacing" textLength="89.0586" x="232.03" y="577.2332">name: string</text><ellipse cx="223.03" cy="590.1834" fill="#000000" rx="3" ry="3" style="stroke:#000000;stroke-width:1.0;"/><text fill="#000000" font-family="sans-serif" font-size="14" lengthAdjust="spacing" textLength="127.1963" x="232.03" y="593.5301">description: string</text><ellipse cx="223.03" cy="606.4803" fill="#000000" rx="3" ry="3" style="stroke:#000000;stroke-width:1.0;"/><text fill="#000000" font-family="sans-serif" font-size="14" lengthAdjust="spacing" textLength="92.9619" x="232.03" y="609.827">image: string</text><ellipse cx="223.03" cy="622.7772" fill="#000000" rx="3" ry="3" style="stroke:#000000;stroke-width:1.0;"/><text fill="#000000" font-family="sans-serif" font-size="14" lengthAdjust="spacing" textLength="94.1309" x="232.03" y="626.1239">price: integer</text><text fill="#000000" font-family="sans-serif" font-size="14" lengthAdjust="spacing" textLength="104.9043" x="232.03" y="642.4207">location: string</text></g><!--class activity_date--><g id="elem_activity_date"><rect codeLine="20" fill="#F1F1F1" height="123.7813" id="activity_date" rx="2.5" ry="2.5" style="stroke:#181818;stroke-width:0.5;" width="156.6689" x="304.62" y="260.6769"/><text fill="#000000" font-family="sans-serif" font-size="14" lengthAdjust="spacing" textLength="90.1729" x="337.868" y="278.672">activity_date</text><line style="stroke:#181818;stroke-width:0.5;" x1="305.62" x2="460.2889" y1="286.9738" y2="286.9738"/><ellipse cx="315.62" cy="300.6222" fill="#000000" rx="3" ry="3" style="stroke:#000000;stroke-width:1.0;"/><text fill="#000000" font-family="sans-serif" font-size="14" lengthAdjust="spacing" textLength="72.0645" x="324.62" y="303.9689">id: integer</text><line style="stroke:#181818;stroke-width:1.0;" x1="305.62" x2="460.2889" y1="311.2706" y2="311.2706"/><text fill="#000000" font-family="sans-serif" font-size="14" lengthAdjust="spacing" textLength="130.6689" x="324.62" y="328.2657">activity_id: integer</text><ellipse cx="315.62" cy="341.2159" fill="#000000" rx="3" ry="3" style="stroke:#000000;stroke-width:1.0;"/><text fill="#000000" font-family="sans-serif" font-size="14" lengthAdjust="spacing" textLength="89.0586" x="324.62" y="344.5626">name: string</text><ellipse cx="315.62" cy="357.5128" fill="#000000" rx="3" ry="3" style="stroke:#000000;stroke-width:1.0;"/><text fill="#000000" font-family="sans-serif" font-size="14" lengthAdjust="spacing" textLength="127.1963" x="324.62" y="360.8595">description: string</text><ellipse cx="315.62" cy="373.8097" fill="#000000" rx="3" ry="3" style="stroke:#000000;stroke-width:1.0;"/><text fill="#000000" font-family="sans-serif" font-size="14" lengthAdjust="spacing" textLength="103.9336" x="324.62" y="377.1564">date: datetime</text></g><!--class category--><g id="elem_category"><rect codeLine="28" fill="#F1F1F1" height="74.8906" id="category" rx="2.5" ry="2.5" style="stroke:#181818;stroke-width:0.5;" width="150" x="49.95" y="742.3169"/><text fill="#000000" font-family="sans-serif" font-size="14" lengthAdjust="spacing" textLength="61.8721" x="94.014" y="760.312">category</text><line style="stroke:#181818;stroke-width:0.5;" x1="50.95" x2="198.95" y1="768.6138" y2="768.6138"/><ellipse cx="60.95" cy="782.2622" fill="#000000" rx="3" ry="3" style="stroke:#000000;stroke-width:1.0;"/><text fill="#000000" font-family="sans-serif" font-size="14" lengthAdjust="spacing" textLength="72.0645" x="69.95" y="785.6089">id: integer</text><line style="stroke:#181818;stroke-width:1.0;" x1="50.95" x2="198.95" y1="792.9106" y2="792.9106"/><ellipse cx="60.95" cy="806.5591" fill="#000000" rx="3" ry="3" style="stroke:#000000;stroke-width:1.0;"/><text fill="#000000" font-family="sans-serif" font-size="14" lengthAdjust="spacing" textLength="89.0586" x="69.95" y="809.9057">name: string</text></g><!--class child--><g id="elem_child"><rect codeLine="33" fill="#F1F1F1" height="123.7813" id="child" rx="2.5" ry="2.5" style="stroke:#181818;stroke-width:0.5;" width="151.2617" x="570.32" y="260.6769"/><text fill="#000000" font-family="sans-serif" font-size="14" lengthAdjust="spacing" textLength="33.2363" x="629.3327" y="278.672">child</text><line style="stroke:#181818;stroke-width:0.5;" x1="571.32" x2="720.5817" y1="286.9738" y2="286.9738"/><ellipse cx="581.32" cy="300.6222" fill="#000000" rx="3" ry="3" style="stroke:#000000;stroke-width:1.0;"/><text fill="#000000" font-family="sans-serif" font-size="14" lengthAdjust="spacing" textLength="72.0645" x="590.32" y="303.9689">id: integer</text><line style="stroke:#181818;stroke-width:1.0;" x1="571.32" x2="720.5817" y1="311.2706" y2="311.2706"/><ellipse cx="581.32" cy="324.9191" fill="#000000" rx="3" ry="3" style="stroke:#000000;stroke-width:1.0;"/><text fill="#000000" font-family="sans-serif" font-size="14" lengthAdjust="spacing" textLength="125.2617" x="590.32" y="328.2657">parent_id: integer</text><ellipse cx="581.32" cy="341.2159" fill="#000000" rx="3" ry="3" style="stroke:#000000;stroke-width:1.0;"/><text fill="#000000" font-family="sans-serif" font-size="14" lengthAdjust="spacing" textLength="89.0586" x="590.32" y="344.5626">name: string</text><ellipse cx="581.32" cy="357.5128" fill="#000000" rx="3" ry="3" style="stroke:#000000;stroke-width:1.0;"/><text fill="#000000" font-family="sans-serif" font-size="14" lengthAdjust="spacing" textLength="84.1094" x="590.32" y="360.8595">class: string</text><ellipse cx="581.32" cy="373.8097" fill="#000000" rx="3" ry="3" style="stroke:#000000;stroke-width:1.0;"/><text fill="#000000" font-family="sans-serif" font-size="14" lengthAdjust="spacing" textLength="75.4346" x="590.32" y="377.1564">age: string</text></g><!--class doctrine_migration_versions--><g id="elem_doctrine_migration_versions"><rect codeLine="41" fill="#F1F1F1" height="91.1875" id="doctrine_migration_versions" rx="2.5" ry="2.5" style="stroke:#181818;stroke-width:0.5;" width="203.9072" x="7" y="76.8869"/><text fill="#000000" font-family="sans-serif" font-size="14" lengthAdjust="spacing" textLength="197.9072" x="10" y="94.882">doctrine_migration_versions</text><line style="stroke:#181818;stroke-width:0.5;" x1="8" x2="209.9072" y1="103.1838" y2="103.1838"/><ellipse cx="18" cy="116.8322" fill="#000000" rx="3" ry="3" style="stroke:#000000;stroke-width:1.0;"/><text fill="#000000" font-family="sans-serif" font-size="14" lengthAdjust="spacing" textLength="100.6318" x="27" y="120.1789">version: string</text><line style="stroke:#181818;stroke-width:1.0;" x1="8" x2="209.9072" y1="127.4806" y2="127.4806"/><text fill="#000000" font-family="sans-serif" font-size="14" lengthAdjust="spacing" textLength="158.5049" x="13" y="144.4757">executed_at: datetime</text><text fill="#000000" font-family="sans-serif" font-size="14" lengthAdjust="spacing" textLength="166.8174" x="13" y="160.7726">execution_time: integer</text></g><!--class messenger_messages--><g id="elem_messenger_messages"><rect codeLine="47" fill="#F1F1F1" height="156.375" id="messenger_messages" rx="2.5" ry="2.5" style="stroke:#181818;stroke-width:0.5;" width="267.3633" x="246.27" y="44.2969"/><text fill="#000000" font-family="sans-serif" font-size="14" lengthAdjust="spacing" textLength="154.793" x="302.5552" y="62.292">messenger_messages</text><line style="stroke:#181818;stroke-width:0.5;" x1="247.27" x2="512.6333" y1="70.5938" y2="70.5938"/><ellipse cx="257.27" cy="84.2422" fill="#000000" rx="3" ry="3" style="stroke:#000000;stroke-width:1.0;"/><text fill="#000000" font-family="sans-serif" font-size="14" lengthAdjust="spacing" textLength="61.8584" x="266.27" y="87.5889">id: bigint</text><line style="stroke:#181818;stroke-width:1.0;" x1="247.27" x2="512.6333" y1="94.8906" y2="94.8906"/><ellipse cx="257.27" cy="108.5391" fill="#000000" rx="3" ry="3" style="stroke:#000000;stroke-width:1.0;"/><text fill="#000000" font-family="sans-serif" font-size="14" lengthAdjust="spacing" textLength="71.668" x="266.27" y="111.8857">body: text</text><ellipse cx="257.27" cy="124.8359" fill="#000000" rx="3" ry="3" style="stroke:#000000;stroke-width:1.0;"/><text fill="#000000" font-family="sans-serif" font-size="14" lengthAdjust="spacing" textLength="93.6592" x="266.27" y="128.1826">headers: text</text><ellipse cx="257.27" cy="141.1328" fill="#000000" rx="3" ry="3" style="stroke:#000000;stroke-width:1.0;"/><text fill="#000000" font-family="sans-serif" font-size="14" lengthAdjust="spacing" textLength="139.918" x="266.27" y="144.4795">queue_name: string</text><ellipse cx="257.27" cy="157.4297" fill="#000000" rx="3" ry="3" style="stroke:#000000;stroke-width:1.0;"/><text fill="#000000" font-family="sans-serif" font-size="14" lengthAdjust="spacing" textLength="229.5645" x="266.27" y="160.7764">created_at: datetime_immutable</text><ellipse cx="257.27" cy="173.7266" fill="#000000" rx="3" ry="3" style="stroke:#000000;stroke-width:1.0;"/><text fill="#000000" font-family="sans-serif" font-size="14" lengthAdjust="spacing" textLength="239.1211" x="266.27" y="177.0732">available_at: datetime_immutable</text><text fill="#000000" font-family="sans-serif" font-size="14" lengthAdjust="spacing" textLength="241.3633" x="266.27" y="193.3701">delivered_at: datetime_immutable</text></g><!--class reset_password_request--><g id="elem_reset_password_request"><rect codeLine="57" fill="#F1F1F1" height="140.0781" id="reset_password_request" rx="2.5" ry="2.5" style="stroke:#181818;stroke-width:0.5;" width="272.9551" x="698.48" y="477.0469"/><text fill="#000000" font-family="sans-serif" font-size="14" lengthAdjust="spacing" textLength="170.0029" x="749.9561" y="495.042">reset_password_request</text><line style="stroke:#181818;stroke-width:0.5;" x1="699.48" x2="970.4351" y1="503.3438" y2="503.3438"/><ellipse cx="709.48" cy="516.9922" fill="#000000" rx="3" ry="3" style="stroke:#000000;stroke-width:1.0;"/><text fill="#000000" font-family="sans-serif" font-size="14" lengthAdjust="spacing" textLength="72.0645" x="718.48" y="520.3389">id: integer</text><line style="stroke:#181818;stroke-width:1.0;" x1="699.48" x2="970.4351" y1="527.6406" y2="527.6406"/><ellipse cx="709.48" cy="541.2891" fill="#000000" rx="3" ry="3" style="stroke:#000000;stroke-width:1.0;"/><text fill="#000000" font-family="sans-serif" font-size="14" lengthAdjust="spacing" textLength="109.6006" x="718.48" y="544.6357">user_id: integer</text><ellipse cx="709.48" cy="557.5859" fill="#000000" rx="3" ry="3" style="stroke:#000000;stroke-width:1.0;"/><text fill="#000000" font-family="sans-serif" font-size="14" lengthAdjust="spacing" textLength="105.2734" x="718.48" y="560.9326">selector: string</text><ellipse cx="709.48" cy="573.8828" fill="#000000" rx="3" ry="3" style="stroke:#000000;stroke-width:1.0;"/><text fill="#000000" font-family="sans-serif" font-size="14" lengthAdjust="spacing" textLength="147.123" x="718.48" y="577.2295">hashed_token: string</text><ellipse cx="709.48" cy="590.1797" fill="#000000" rx="3" ry="3" style="stroke:#000000;stroke-width:1.0;"/><text fill="#000000" font-family="sans-serif" font-size="14" lengthAdjust="spacing" textLength="246.9551" x="718.48" y="593.5264">requested_at: datetime_immutable</text><ellipse cx="709.48" cy="606.4766" fill="#000000" rx="3" ry="3" style="stroke:#000000;stroke-width:1.0;"/><text fill="#000000" font-family="sans-serif" font-size="14" lengthAdjust="spacing" textLength="227.2676" x="718.48" y="609.8232">expires_at: datetime_immutable</text></g><!--class school--><g id="elem_school"><rect codeLine="66" fill="#F1F1F1" height="74.8906" id="school" rx="2.5" ry="2.5" style="stroke:#181818;stroke-width:0.5;" width="150" x="419.95" y="742.3169"/><text fill="#000000" font-family="sans-serif" font-size="14" lengthAdjust="spacing" textLength="44.8848" x="472.5076" y="760.312">school</text><line style="stroke:#181818;stroke-width:0.5;" x1="420.95" x2="568.95" y1="768.6138" y2="768.6138"/><ellipse cx="430.95" cy="782.2622" fill="#000000" rx="3" ry="3" style="stroke:#000000;stroke-width:1.0;"/><text fill="#000000" font-family="sans-serif" font-size="14" lengthAdjust="spacing" textLength="72.0645" x="439.95" y="785.6089">id: integer</text><line style="stroke:#181818;stroke-width:1.0;" x1="420.95" x2="568.95" y1="792.9106" y2="792.9106"/><ellipse cx="430.95" cy="806.5591" fill="#000000" rx="3" ry="3" style="stroke:#000000;stroke-width:1.0;"/><text fill="#000000" font-family="sans-serif" font-size="14" lengthAdjust="spacing" textLength="89.0586" x="439.95" y="809.9057">name: string</text></g><!--class school_user--><g id="elem_school_user"><rect codeLine="71" fill="#F1F1F1" height="74.8906" id="school_user" rx="2.5" ry="2.5" style="stroke:#181818;stroke-width:0.5;" width="150" x="442.95" y="509.6369"/><text fill="#000000" font-family="sans-serif" font-size="14" lengthAdjust="spacing" textLength="82.4209" x="476.7396" y="527.632">school_user</text><line style="stroke:#181818;stroke-width:0.5;" x1="443.95" x2="591.95" y1="535.9337" y2="535.9337"/><ellipse cx="453.95" cy="549.5822" fill="#000000" rx="3" ry="3" style="stroke:#000000;stroke-width:1.0;"/><text fill="#000000" font-family="sans-serif" font-size="14" lengthAdjust="spacing" textLength="123.9492" x="462.95" y="552.9289">school_id: integer</text><ellipse cx="453.95" cy="565.8791" fill="#000000" rx="3" ry="3" style="stroke:#000000;stroke-width:1.0;"/><text fill="#000000" font-family="sans-serif" font-size="14" lengthAdjust="spacing" textLength="109.6006" x="462.95" y="569.2257">user_id: integer</text><line style="stroke:#181818;stroke-width:1.0;" x1="443.95" x2="591.95" y1="576.5275" y2="576.5275"/></g><!--class signup--><g id="elem_signup"><rect codeLine="76" fill="#F1F1F1" height="123.7813" id="signup" rx="2.5" ry="2.5" style="stroke:#181818;stroke-width:0.5;" width="195.2373" x="548.33" y="60.5969"/><text fill="#000000" font-family="sans-serif" font-size="14" lengthAdjust="spacing" textLength="46.7031" x="622.5971" y="78.592">signup</text><line style="stroke:#181818;stroke-width:0.5;" x1="549.33" x2="742.5673" y1="86.8937" y2="86.8937"/><ellipse cx="559.33" cy="100.5422" fill="#000000" rx="3" ry="3" style="stroke:#000000;stroke-width:1.0;"/><text fill="#000000" font-family="sans-serif" font-size="14" lengthAdjust="spacing" textLength="72.0645" x="568.33" y="103.8889">id: integer</text><line style="stroke:#181818;stroke-width:1.0;" x1="549.33" x2="742.5673" y1="111.1906" y2="111.1906"/><ellipse cx="559.33" cy="124.8391" fill="#000000" rx="3" ry="3" style="stroke:#000000;stroke-width:1.0;"/><text fill="#000000" font-family="sans-serif" font-size="14" lengthAdjust="spacing" textLength="112.3008" x="568.33" y="128.1857">child_id: integer</text><ellipse cx="559.33" cy="141.1359" fill="#000000" rx="3" ry="3" style="stroke:#000000;stroke-width:1.0;"/><text fill="#000000" font-family="sans-serif" font-size="14" lengthAdjust="spacing" textLength="169.2373" x="568.33" y="144.4826">activity_date_id: integer</text><ellipse cx="559.33" cy="157.4328" fill="#000000" rx="3" ry="3" style="stroke:#000000;stroke-width:1.0;"/><text fill="#000000" font-family="sans-serif" font-size="14" lengthAdjust="spacing" textLength="109.6006" x="568.33" y="160.7795">user_id: integer</text><ellipse cx="559.33" cy="173.7297" fill="#000000" rx="3" ry="3" style="stroke:#000000;stroke-width:1.0;"/><text fill="#000000" font-family="sans-serif" font-size="14" lengthAdjust="spacing" textLength="164.6367" x="568.33" y="177.0764">signed_up_at: datetime</text></g><!--class sponsor--><g id="elem_sponsor"><rect codeLine="84" fill="#F1F1F1" height="107.4844" id="sponsor" rx="2.5" ry="2.5" style="stroke:#181818;stroke-width:0.5;" width="150" x="33.95" y="268.8169"/><text fill="#000000" font-family="sans-serif" font-size="14" lengthAdjust="spacing" textLength="55.2344" x="81.3328" y="286.812">sponsor</text><line style="stroke:#181818;stroke-width:0.5;" x1="34.95" x2="182.95" y1="295.1138" y2="295.1138"/><ellipse cx="44.95" cy="308.7622" fill="#000000" rx="3" ry="3" style="stroke:#000000;stroke-width:1.0;"/><text fill="#000000" font-family="sans-serif" font-size="14" lengthAdjust="spacing" textLength="72.0645" x="53.95" y="312.1089">id: integer</text><line style="stroke:#181818;stroke-width:1.0;" x1="34.95" x2="182.95" y1="319.4106" y2="319.4106"/><ellipse cx="44.95" cy="333.0591" fill="#000000" rx="3" ry="3" style="stroke:#000000;stroke-width:1.0;"/><text fill="#000000" font-family="sans-serif" font-size="14" lengthAdjust="spacing" textLength="89.0586" x="53.95" y="336.4057">name: string</text><ellipse cx="44.95" cy="349.3559" fill="#000000" rx="3" ry="3" style="stroke:#000000;stroke-width:1.0;"/><text fill="#000000" font-family="sans-serif" font-size="14" lengthAdjust="spacing" textLength="92.9619" x="53.95" y="352.7026">image: string</text><ellipse cx="44.95" cy="365.6528" fill="#000000" rx="3" ry="3" style="stroke:#000000;stroke-width:1.0;"/><text fill="#000000" font-family="sans-serif" font-size="14" lengthAdjust="spacing" textLength="109.8877" x="53.95" y="368.9995">visible: boolean</text></g><!--class target_group--><g id="elem_target_group"><rect codeLine="91" fill="#F1F1F1" height="74.8906" id="target_group" rx="2.5" ry="2.5" style="stroke:#181818;stroke-width:0.5;" width="150" x="234.95" y="742.3169"/><text fill="#000000" font-family="sans-serif" font-size="14" lengthAdjust="spacing" textLength="90.7813" x="264.5594" y="760.312">target_group</text><line style="stroke:#181818;stroke-width:0.5;" x1="235.95" x2="383.95" y1="768.6138" y2="768.6138"/><ellipse cx="245.95" cy="782.2622" fill="#000000" rx="3" ry="3" style="stroke:#000000;stroke-width:1.0;"/><text fill="#000000" font-family="sans-serif" font-size="14" lengthAdjust="spacing" textLength="72.0645" x="254.95" y="785.6089">id: integer</text><line style="stroke:#181818;stroke-width:1.0;" x1="235.95" x2="383.95" y1="792.9106" y2="792.9106"/><ellipse cx="245.95" cy="806.5591" fill="#000000" rx="3" ry="3" style="stroke:#000000;stroke-width:1.0;"/><text fill="#000000" font-family="sans-serif" font-size="14" lengthAdjust="spacing" textLength="89.0586" x="254.95" y="809.9057">name: string</text></g><!--class user--><g id="elem_user"><rect codeLine="96" fill="#F1F1F1" height="140.0781" id="user" rx="2.5" ry="2.5" style="stroke:#181818;stroke-width:0.5;" width="162.1855" x="604.86" y="709.7169"/><text fill="#000000" font-family="sans-serif" font-size="14" lengthAdjust="spacing" textLength="30.5361" x="670.6847" y="727.712">user</text><line style="stroke:#181818;stroke-width:0.5;" x1="605.86" x2="766.0455" y1="736.0138" y2="736.0138"/><ellipse cx="615.86" cy="749.6622" fill="#000000" rx="3" ry="3" style="stroke:#000000;stroke-width:1.0;"/><text fill="#000000" font-family="sans-serif" font-size="14" lengthAdjust="spacing" textLength="72.0645" x="624.86" y="753.0089">id: integer</text><line style="stroke:#181818;stroke-width:1.0;" x1="605.86" x2="766.0455" y1="760.3106" y2="760.3106"/><ellipse cx="615.86" cy="773.9591" fill="#000000" rx="3" ry="3" style="stroke:#000000;stroke-width:1.0;"/><text fill="#000000" font-family="sans-serif" font-size="14" lengthAdjust="spacing" textLength="87.9648" x="624.86" y="777.3057">email: string</text><ellipse cx="615.86" cy="790.2559" fill="#000000" rx="3" ry="3" style="stroke:#000000;stroke-width:1.0;"/><text fill="#000000" font-family="sans-serif" font-size="14" lengthAdjust="spacing" textLength="71.9072" x="624.86" y="793.6026">roles: json</text><ellipse cx="615.86" cy="806.5528" fill="#000000" rx="3" ry="3" style="stroke:#000000;stroke-width:1.0;"/><text fill="#000000" font-family="sans-serif" font-size="14" lengthAdjust="spacing" textLength="116.0674" x="624.86" y="809.8995">password: string</text><ellipse cx="615.86" cy="822.8497" fill="#000000" rx="3" ry="3" style="stroke:#000000;stroke-width:1.0;"/><text fill="#000000" font-family="sans-serif" font-size="14" lengthAdjust="spacing" textLength="136.1855" x="624.86" y="826.1964">is_verified: boolean</text><ellipse cx="615.86" cy="839.1466" fill="#000000" rx="3" ry="3" style="stroke:#000000;stroke-width:1.0;"/><text fill="#000000" font-family="sans-serif" font-size="14" lengthAdjust="spacing" textLength="89.0586" x="624.86" y="842.4932">name: string</text></g><!--link activity to user--><g id="link_activity_user"><path codeLine="105" d="M396.42,667.9769 C396.42,710.3869 396.42,731.7969 396.42,731.7969 C396.42,731.7969 503.89,731.7969 589.53,731.7969 " fill="none" id="activity-user" style="stroke:#181818;stroke-width:1.0;"/><line style="stroke:#181818;stroke-width:1.0;" x1="396.42" x2="390.42" y1="657.9769" y2="649.9769"/><line style="stroke:#181818;stroke-width:1.0;" x1="396.42" x2="402.42" y1="657.9769" y2="649.9769"/><line style="stroke:#181818;stroke-width:1.0;" x1="396.42" x2="396.42" y1="657.9769" y2="649.9769"/><ellipse cx="396.42" cy="663.9769" fill="none" rx="4" ry="4" style="stroke:#181818;stroke-width:1.0;"/><line style="stroke:#181818;stroke-width:1.0;" x1="593.53" x2="604.53" y1="731.7969" y2="731.7969"/><ellipse cx="593.53" cy="731.7969" fill="none" rx="4" ry="4" style="stroke:#181818;stroke-width:1.0;"/><line style="stroke:#181818;stroke-width:1.0;" x1="600.53" x2="600.53" y1="727.7969" y2="735.7969"/></g><!--link activity to category--><g id="link_activity_category"><path codeLine="106" d="M223.49,668.1769 C223.49,730.4169 223.49,779.7969 223.49,779.7969 C223.49,779.7969 228.75,779.7969 215.39,779.7969 " fill="none" id="activity-category" style="stroke:#181818;stroke-width:1.0;"/><line style="stroke:#181818;stroke-width:1.0;" x1="223.49" x2="217.49" y1="658.1769" y2="650.1769"/><line style="stroke:#181818;stroke-width:1.0;" x1="223.49" x2="229.49" y1="658.1769" y2="650.1769"/><line style="stroke:#181818;stroke-width:1.0;" x1="223.49" x2="223.49" y1="658.1769" y2="650.1769"/><ellipse cx="223.49" cy="664.1769" fill="none" rx="4" ry="4" style="stroke:#181818;stroke-width:1.0;"/><line style="stroke:#181818;stroke-width:1.0;" x1="211.39" x2="200.39" y1="779.7969" y2="779.7969"/><ellipse cx="211.39" cy="779.7969" fill="none" rx="4" ry="4" style="stroke:#181818;stroke-width:1.0;"/><line style="stroke:#181818;stroke-width:1.0;" x1="204.39" x2="204.39" y1="783.7969" y2="775.7969"/></g><!--link activity to school--><g id="link_activity_school"><path codeLine="107" d="M426.31,633.7969 C439.98,633.7969 431.45,633.7969 431.45,633.7969 C431.45,633.7969 431.45,683.9269 431.45,727.1669 " fill="none" id="activity-school" style="stroke:#181818;stroke-width:1.0;"/><line style="stroke:#181818;stroke-width:1.0;" x1="416.31" x2="408.31" y1="633.7969" y2="639.7969"/><line style="stroke:#181818;stroke-width:1.0;" x1="416.31" x2="408.31" y1="633.7969" y2="627.7969"/><line style="stroke:#181818;stroke-width:1.0;" x1="416.31" x2="408.31" y1="633.7969" y2="633.7969"/><ellipse cx="422.31" cy="633.7969" fill="none" rx="4" ry="4" style="stroke:#181818;stroke-width:1.0;"/><line style="stroke:#181818;stroke-width:1.0;" x1="431.45" x2="431.45" y1="731.1669" y2="742.1669"/><ellipse cx="431.45" cy="731.1669" fill="none" rx="4" ry="4" style="stroke:#181818;stroke-width:1.0;"/><line style="stroke:#181818;stroke-width:1.0;" x1="435.45" x2="427.45" y1="738.1669" y2="738.1669"/></g><!--link activity to target_group--><g id="link_activity_target_group"><path codeLine="108" d="M309.95,668.1569 C309.95,700.8569 309.95,701.9669 309.95,726.9869 " fill="none" id="activity-target_group" style="stroke:#181818;stroke-width:1.0;"/><line style="stroke:#181818;stroke-width:1.0;" x1="309.95" x2="303.95" y1="658.1569" y2="650.1569"/><line style="stroke:#181818;stroke-width:1.0;" x1="309.95" x2="315.95" y1="658.1569" y2="650.1569"/><line style="stroke:#181818;stroke-width:1.0;" x1="309.95" x2="309.95" y1="658.1569" y2="650.1569"/><ellipse cx="309.95" cy="664.1569" fill="none" rx="4" ry="4" style="stroke:#181818;stroke-width:1.0;"/><line style="stroke:#181818;stroke-width:1.0;" x1="309.95" x2="309.95" y1="730.9869" y2="741.9869"/><ellipse cx="309.95" cy="730.9869" fill="none" rx="4" ry="4" style="stroke:#181818;stroke-width:1.0;"/><line style="stroke:#181818;stroke-width:1.0;" x1="313.95" x2="305.95" y1="737.9869" y2="737.9869"/></g><!--link activity_date to activity--><g id="link_activity_date_activity"><path codeLine="109" d="M356.25,402.8069 C356.25,421.2369 356.25,408.9269 356.25,429.2069 " fill="none" id="activity_date-activity" style="stroke:#181818;stroke-width:1.0;"/><line style="stroke:#181818;stroke-width:1.0;" x1="356.25" x2="350.25" y1="392.8069" y2="384.8069"/><line style="stroke:#181818;stroke-width:1.0;" x1="356.25" x2="362.25" y1="392.8069" y2="384.8069"/><line style="stroke:#181818;stroke-width:1.0;" x1="356.25" x2="356.25" y1="392.8069" y2="384.8069"/><ellipse cx="356.25" cy="398.8069" fill="none" rx="4" ry="4" style="stroke:#181818;stroke-width:1.0;"/><line style="stroke:#181818;stroke-width:1.0;" x1="356.25" x2="356.25" y1="433.2069" y2="444.2069"/><ellipse cx="356.25" cy="433.2069" fill="none" rx="4" ry="4" style="stroke:#181818;stroke-width:1.0;"/><line style="stroke:#181818;stroke-width:1.0;" x1="360.25" x2="352.25" y1="440.2069" y2="440.2069"/></g><!--link child to user--><g id="link_child_user"><path codeLine="110" d="M636.07,402.6969 C636.07,487.4169 636.07,612.7669 636.07,701.5069 " fill="none" id="child-user" style="stroke:#181818;stroke-width:1.0;"/><line style="stroke:#181818;stroke-width:1.0;" x1="636.07" x2="630.07" y1="392.6969" y2="384.6969"/><line style="stroke:#181818;stroke-width:1.0;" x1="636.07" x2="642.07" y1="392.6969" y2="384.6969"/><line style="stroke:#181818;stroke-width:1.0;" x1="636.07" x2="636.07" y1="392.6969" y2="384.6969"/><ellipse cx="636.07" cy="398.6969" fill="none" rx="4" ry="4" style="stroke:#181818;stroke-width:1.0;"/><line style="stroke:#181818;stroke-width:1.0;" x1="640.07" x2="632.07" y1="705.5069" y2="705.5069"/><line style="stroke:#181818;stroke-width:1.0;" x1="640.07" x2="632.07" y1="702.5069" y2="702.5069"/><line style="stroke:#181818;stroke-width:1.0;" x1="636.07" x2="636.07" y1="701.5069" y2="709.5069"/></g><!--link reset_password_request to user--><g id="link_reset_password_request_user"><path codeLine="111" d="M732.76,635.5269 C732.76,664.6869 732.76,672.4269 732.76,701.5569 " fill="none" id="reset_password_request-user" style="stroke:#181818;stroke-width:1.0;"/><line style="stroke:#181818;stroke-width:1.0;" x1="732.76" x2="726.76" y1="625.5269" y2="617.5269"/><line style="stroke:#181818;stroke-width:1.0;" x1="732.76" x2="738.76" y1="625.5269" y2="617.5269"/><line style="stroke:#181818;stroke-width:1.0;" x1="732.76" x2="732.76" y1="625.5269" y2="617.5269"/><ellipse cx="732.76" cy="631.5269" fill="none" rx="4" ry="4" style="stroke:#181818;stroke-width:1.0;"/><line style="stroke:#181818;stroke-width:1.0;" x1="736.76" x2="728.76" y1="705.5569" y2="705.5569"/><line style="stroke:#181818;stroke-width:1.0;" x1="736.76" x2="728.76" y1="702.5569" y2="702.5569"/><line style="stroke:#181818;stroke-width:1.0;" x1="732.76" x2="732.76" y1="701.5569" y2="709.5569"/></g><!--link school_user to school--><g id="link_school_user_school"><path codeLine="112" d="M506.45,602.9869 C506.45,646.2569 506.45,690.6169 506.45,733.8769 " fill="none" id="school_user-school" style="stroke:#181818;stroke-width:1.0;"/><line style="stroke:#181818;stroke-width:1.0;" x1="506.45" x2="500.45" y1="592.9869" y2="584.9869"/><line style="stroke:#181818;stroke-width:1.0;" x1="506.45" x2="512.45" y1="592.9869" y2="584.9869"/><line style="stroke:#181818;stroke-width:1.0;" x1="506.45" x2="506.45" y1="592.9869" y2="584.9869"/><ellipse cx="506.45" cy="598.9869" fill="none" rx="4" ry="4" style="stroke:#181818;stroke-width:1.0;"/><line style="stroke:#181818;stroke-width:1.0;" x1="510.45" x2="502.45" y1="737.8769" y2="737.8769"/><line style="stroke:#181818;stroke-width:1.0;" x1="510.45" x2="502.45" y1="734.8769" y2="734.8769"/><line style="stroke:#181818;stroke-width:1.0;" x1="506.45" x2="506.45" y1="733.8769" y2="741.8769"/></g><!--link school_user to user--><g id="link_school_user_user"><path codeLine="113" d="M581.45,602.7769 C581.45,653.8669 581.45,720.7969 581.45,720.7969 C581.45,720.7969 583.03,720.7969 596.39,720.7969 " fill="none" id="school_user-user" style="stroke:#181818;stroke-width:1.0;"/><line style="stroke:#181818;stroke-width:1.0;" x1="581.45" x2="575.45" y1="592.7769" y2="584.7769"/><line style="stroke:#181818;stroke-width:1.0;" x1="581.45" x2="587.45" y1="592.7769" y2="584.7769"/><line style="stroke:#181818;stroke-width:1.0;" x1="581.45" x2="581.45" y1="592.7769" y2="584.7769"/><ellipse cx="581.45" cy="598.7769" fill="none" rx="4" ry="4" style="stroke:#181818;stroke-width:1.0;"/><line style="stroke:#181818;stroke-width:1.0;" x1="600.39" x2="600.39" y1="716.7969" y2="724.7969"/><line style="stroke:#181818;stroke-width:1.0;" x1="597.39" x2="597.39" y1="716.7969" y2="724.7969"/><line style="stroke:#181818;stroke-width:1.0;" x1="596.39" x2="604.39" y1="720.7969" y2="720.7969"/></g><!--link signup to child--><g id="link_signup_child"><path codeLine="114" d="M645.95,202.6969 C645.95,226.7869 645.95,228.3069 645.95,252.3869 " fill="none" id="signup-child" style="stroke:#181818;stroke-width:1.0;"/><line style="stroke:#181818;stroke-width:1.0;" x1="645.95" x2="639.95" y1="192.6969" y2="184.6969"/><line style="stroke:#181818;stroke-width:1.0;" x1="645.95" x2="651.95" y1="192.6969" y2="184.6969"/><line style="stroke:#181818;stroke-width:1.0;" x1="645.95" x2="645.95" y1="192.6969" y2="184.6969"/><ellipse cx="645.95" cy="198.6969" fill="none" rx="4" ry="4" style="stroke:#181818;stroke-width:1.0;"/><line style="stroke:#181818;stroke-width:1.0;" x1="649.95" x2="641.95" y1="256.3869" y2="256.3869"/><line style="stroke:#181818;stroke-width:1.0;" x1="649.95" x2="641.95" y1="253.3869" y2="253.3869"/><line style="stroke:#181818;stroke-width:1.0;" x1="645.95" x2="645.95" y1="252.3869" y2="260.3869"/></g><!--link signup to user--><g id="link_signup_user"><path codeLine="115" d="M732.58,202.8369 C732.58,288.6869 732.58,414.7969 732.58,414.7969 C732.58,414.7969 667.27,414.7969 667.27,414.7969 C667.27,414.7969 667.27,595.3369 667.27,701.3869 " fill="none" id="signup-user" style="stroke:#181818;stroke-width:1.0;"/><line style="stroke:#181818;stroke-width:1.0;" x1="732.58" x2="726.58" y1="192.8369" y2="184.8369"/><line style="stroke:#181818;stroke-width:1.0;" x1="732.58" x2="738.58" y1="192.8369" y2="184.8369"/><line style="stroke:#181818;stroke-width:1.0;" x1="732.58" x2="732.58" y1="192.8369" y2="184.8369"/><ellipse cx="732.58" cy="198.8369" fill="none" rx="4" ry="4" style="stroke:#181818;stroke-width:1.0;"/><line style="stroke:#181818;stroke-width:1.0;" x1="671.27" x2="663.27" y1="705.3869" y2="705.3869"/><line style="stroke:#181818;stroke-width:1.0;" x1="671.27" x2="663.27" y1="702.3869" y2="702.3869"/><line style="stroke:#181818;stroke-width:1.0;" x1="667.27" x2="667.27" y1="701.3869" y2="709.3869"/></g><!--link signup to activity_date--><g id="link_signup_activity_date"><path codeLine="116" d="M559.33,202.7669 C559.33,261.5669 559.33,322.7969 559.33,322.7969 C559.33,322.7969 516.63,322.7969 469.6,322.7969 " fill="none" id="signup-activity_date" style="stroke:#181818;stroke-width:1.0;"/><line style="stroke:#181818;stroke-width:1.0;" x1="559.33" x2="553.33" y1="192.7669" y2="184.7669"/><line style="stroke:#181818;stroke-width:1.0;" x1="559.33" x2="565.33" y1="192.7669" y2="184.7669"/><line style="stroke:#181818;stroke-width:1.0;" x1="559.33" x2="559.33" y1="192.7669" y2="184.7669"/><ellipse cx="559.33" cy="198.7669" fill="none" rx="4" ry="4" style="stroke:#181818;stroke-width:1.0;"/><line style="stroke:#181818;stroke-width:1.0;" x1="465.6" x2="465.6" y1="326.7969" y2="318.7969"/><line style="stroke:#181818;stroke-width:1.0;" x1="468.6" x2="468.6" y1="326.7969" y2="318.7969"/><line style="stroke:#181818;stroke-width:1.0;" x1="469.6" x2="461.6" y1="322.7969" y2="322.7969"/></g><!--SRC=[dLGzZzim3DtzAzGrG81sw9ArQuik1JeAYiJQx5aVbUWqGU_-UodRiUMFk-jrIQmdYdoFUbI31WJOG3TXmPuXfgh9aCQeMwZI0xgWehBY2xfFhKhfEnfgn8UFxukzp-ZWsos0-1gfyHKXjI1K2DKxQi22aCuxa1Kutha9fGal-UDFTH1eJW8TGGsnEXuheHL_-tYJvOOW5MiWMKVVXULEqettxHBJ4HJvk00FmYaB9v4eegjvQI3fY87Gkm95g-eoAaJKKAHkFHCiZpojLKd32dQbJH7_mIidFVM_X1RcglTsxHLSfPxFDDYQ_GDydHpqCa6TNL2iouPDDOpN6G5fiOvzn-I5lSN_gQyyBgQ3kJzm1TqH6Acea3h2EKDUpyIcMXPI0iUGp5zC9qtYpbXp-A3jxCtj90Ykn8i6b64Aq_fN1nt8jTBienKVYTPsfCuy6opzeh3Dty-5y6sso5gVJpAfY93OuO5x-zj78oCmfKJxrzGbMBixGGkQJL_GRrHgk33v1oYjD6P-IHTS0pAVLpaFm_SMxutZcWNqntR6TqSU9vmpOEswi5-pT_OgsM8kNojqwDDpQ_YPMRXmBX_OmZx-W-RjOtB1XDm_jYLh1kNchENxzfPsJdtSn8DbQvQtpXNPxZ-JT_sS3pOhoQOyeVW3mSm4DtMdj_l97u_-iIUm0U-FqcPZkEqDNAglbk_e6747g-7jokZZMFoPkIb3IjED-CXaPsSuCPXiXFgYAsmdRC7yBm00]--></g></svg>